<?xml version="1.0" encoding="utf-8"?>
<svg xmlns="http://www.w3.org/2000/svg" version="1.1" viewBox="-5 28.694 110.688 45.229" xmlns:bx="https://boxy-svg.com" width="110.688px" height="45.229px"><defs><bx:export><bx:file format="svg"/></bx:export></defs><path d="M 98.001 50.015 L 98.001 37.364 L 67.789 37.364 L 67.789 38.739 L 87.404 50.015 L 98.001 50.015 Z" style=""/><path d="M 36.322 37.364 L 3.59 37.364 L 3.59 50.015 L 14.145 50.015 L 36.322 37.364 Z" style=""/><path d="M 41.319 50.015 L 49.537 44.946 L 38.059 38.092 L 17.159 50.015 L 15.851 50.76 L 14.543 51.512 L -3.636 61.883 L 3.152 72.505 L 37.98 52.075 L 38.897 51.512 L 40.107 50.76 L 41.319 50.015 Z" style=""/><path d="M 87 51.512 L 85.697 50.768 L 84.401 50.021 L 67.789 40.47 L 67.789 53.848 C 67.789 53.934 67.775 54.013 67.752 54.087 L 97.725 71.992 L 103.981 61.272 L 87 51.512 Z" style=""/><path d="M 49.408 29.897 L 49.298 29.836 L 38.641 35.865 L 37.925 36.269 L 38.506 36.617 L 38.818 36.8 L 39.552 37.241 L 39.753 37.363 L 50.968 44.058 L 54.239 42.041 L 54.239 32.673 L 49.469 29.933 L 49.408 29.897 Z" style=""/><path d="M 51.695 45.368 L 50.98 45.808 L 44.162 50.014 L 42.952 50.76 L 41.741 51.512 L 39.399 52.955 L 39.417 52.961 L 48.57 60.22 L 54.239 56.588 L 54.239 43.796 L 52.417 44.921 L 51.695 45.368 Z" style=""/><path d="M 64.321 35.865 L 55.737 31.597 L 55.737 57.493 L 64.664 53.983 L 65.538 53.635 L 66.29 53.334 L 66.29 36.85 L 64.321 35.865 Z" style=""/></svg>